<svg xmlns="http://www.w3.org/2000/svg" width="74" height="74" viewBox="0 0 74 74" fill="none">
    <g clip-path="url(#clip0_710_133)">
        <g filter="url(#filter0_d_710_133)">
            <path d="M37 69.375C54.8802 69.375 69.375 54.8802 69.375 37C69.375 19.1198 54.8802 4.625 37 4.625C19.1198 4.625 4.625 19.1198 4.625 37C4.625 54.8802 19.1198 69.375 37 69.375Z"
                  fill="#FFC84D"/>
            <path d="M25.5706 43.2862C30.432 43.2862 34.3729 39.3453 34.3729 34.4839C34.3729 29.6226 30.432 25.6816 25.5706 25.6816C20.7092 25.6816 16.7683 29.6226 16.7683 34.4839C16.7683 39.3453 20.7092 43.2862 25.5706 43.2862Z"
                  fill="black"/>
            <path d="M22.9177 36.8465C25.2953 36.8465 27.2227 34.9191 27.2227 32.5415C27.2227 30.164 25.2953 28.2366 22.9177 28.2366C20.5402 28.2366 18.6128 30.164 18.6128 32.5415C18.6128 34.9191 20.5402 36.8465 22.9177 36.8465Z"
                  fill="white"/>
            <path d="M28.6933 39.3051C29.7508 39.3051 30.6081 38.4478 30.6081 37.3903C30.6081 36.3328 29.7508 35.4756 28.6933 35.4756C27.6358 35.4756 26.7786 36.3328 26.7786 37.3903C26.7786 38.4478 27.6358 39.3051 28.6933 39.3051Z"
                  fill="white"/>
            <path d="M48.4293 43.2862C53.2906 43.2862 57.2316 39.3453 57.2316 34.4839C57.2316 29.6226 53.2906 25.6816 48.4293 25.6816C43.5679 25.6816 39.627 29.6226 39.627 34.4839C39.627 39.3453 43.5679 43.2862 48.4293 43.2862Z"
                  fill="black"/>
            <path d="M45.7764 36.8465C48.1539 36.8465 50.0813 34.9191 50.0813 32.5415C50.0813 30.164 48.1539 28.2366 45.7764 28.2366C43.3988 28.2366 41.4714 30.164 41.4714 32.5415C41.4714 34.9191 43.3988 36.8465 45.7764 36.8465Z"
                  fill="white"/>
            <path d="M51.5539 39.3051C52.6114 39.3051 53.4687 38.4478 53.4687 37.3903C53.4687 36.3328 52.6114 35.4756 51.5539 35.4756C50.4964 35.4756 49.6392 36.3328 49.6392 37.3903C49.6392 38.4478 50.4964 39.3051 51.5539 39.3051Z"
                  fill="white"/>
            <path d="M24.888 18.4204C26.997 17.4362 27.9886 16.3854 28.8137 15.4474C29.2892 14.9072 29.9626 15.1551 29.957 15.9247C29.9441 17.5879 28.9173 19.8467 26.1534 21.1362C23.3895 22.4238 20.9993 21.7596 19.7173 20.6996C19.1234 20.2093 19.3658 19.5322 20.0873 19.5156C21.336 19.4878 22.779 19.4027 24.888 18.4204Z"
                  fill="black"/>
            <path d="M49.1119 18.4204C47.0029 17.4362 46.0113 16.3854 45.1862 15.4474C44.7107 14.9072 44.0373 15.1551 44.0429 15.9247C44.0558 17.5879 45.0826 19.8467 47.8465 21.1362C50.6104 22.4238 53.0006 21.7596 54.2826 20.6996C54.8765 20.2093 54.6341 19.5322 53.9126 19.5156C52.6639 19.4878 51.2209 19.4027 49.1119 18.4204Z"
                  fill="black"/>
            <path d="M37 52.6326C33.8014 52.6326 31.3723 52.0276 29.8202 51.4745C29.1542 51.2377 28.5844 52.0054 28.9988 52.5789C30.3363 54.4252 32.8875 56.882 37 56.882C41.1126 56.882 43.6637 54.4234 45.0013 52.5789C45.4157 52.0054 44.8459 51.2377 44.1799 51.4745C42.6277 52.0276 40.1987 52.6326 37 52.6326Z"
                  fill="#ED8A34"/>
            <path d="M54.1975 39.54C55.5869 38.9739 57.028 40.3984 56.3842 41.7545C54.9708 44.7256 51.9405 46.7809 48.4311 46.7809C44.9216 46.7809 41.8913 44.7274 40.4779 41.7545C39.8341 40.4003 41.2753 38.9739 42.6646 39.54C46.5089 41.107 50.3551 41.107 54.1994 39.54H54.1975Z"
                  fill="#9FBDF7"/>
            <path d="M31.3371 39.54C32.7265 38.9739 34.1676 40.3984 33.5238 41.7545C32.1104 44.7256 29.0801 46.7809 25.5707 46.7809C22.0612 46.7809 19.0309 44.7274 17.6175 41.7545C16.9737 40.4003 18.4149 38.9739 19.8042 39.54C23.6485 41.107 27.4947 41.107 31.339 39.54H31.3371Z"
                  fill="#9FBDF7"/>
        </g>
    </g>
    <defs>
        <filter id="filter0_d_710_133" x="4.625" y="4.625" width="72.75" height="72.75" filterUnits="userSpaceOnUse"
                color-interpolation-filters="sRGB">
            <feFlood flood-opacity="0" result="BackgroundImageFix"/>
            <feColorMatrix in="SourceAlpha" type="matrix" values="0 0 0 0 0 0 0 0 0 0 0 0 0 0 0 0 0 0 127 0"
                           result="hardAlpha"/>
            <feOffset dx="4" dy="4"/>
            <feGaussianBlur stdDeviation="2"/>
            <feComposite in2="hardAlpha" operator="out"/>
            <feColorMatrix type="matrix" values="0 0 0 0 0 0 0 0 0 0 0 0 0 0 0 0 0 0 0.1 0"/>
            <feBlend mode="normal" in2="BackgroundImageFix" result="effect1_dropShadow_710_133"/>
            <feBlend mode="normal" in="SourceGraphic" in2="effect1_dropShadow_710_133" result="shape"/>
        </filter>
        <clipPath id="clip0_710_133">
            <rect width="74" height="74" fill="white"/>
        </clipPath>
    </defs>
</svg>