<svg xmlns="http://www.w3.org/2000/svg" width="74" height="74" viewBox="0 0 74 74" fill="none">
    <g clip-path="url(#clip0_710_150)">
        <g filter="url(#filter0_d_710_150)">
            <path d="M36.5941 69.375C54.4743 69.375 68.9691 54.8802 68.9691 37C68.9691 19.1198 54.4743 4.625 36.5941 4.625C18.7139 4.625 4.21912 19.1198 4.21912 37C4.21912 54.8802 18.7139 69.375 36.5941 69.375Z"
                  fill="#FFC84D"/>
            <path d="M22.4097 34.0845C21.9743 34.3489 21.4168 34.0007 21.4743 33.4946C21.794 30.6825 23.9897 28.3996 26.8371 28.1504C29.6845 27.9013 32.2433 29.7683 33.0464 32.4821C33.191 32.9705 32.7024 33.4103 32.2277 33.2255C31.1919 32.8223 29.4448 32.3524 27.2217 32.5469C24.9987 32.7414 23.3598 33.5076 22.4097 34.0845Z"
                  fill="black"/>
            <path d="M50.7785 34.0845C51.2139 34.3489 51.7714 34.0007 51.7139 33.4946C51.3942 30.6825 49.1985 28.3996 46.3511 28.1504C43.5036 27.9013 40.9449 29.7683 40.1418 32.4821C39.9972 32.9705 40.4858 33.4103 40.9605 33.2255C41.9963 32.8223 43.7434 32.3524 45.9664 32.5469C48.1895 32.7414 49.8284 33.5076 50.7785 34.0845Z"
                  fill="black"/>
            <path d="M59.5405 66.0116C59.1075 66.2978 58.5482 66.2978 58.1151 66.0116C56.7402 65.1032 53.7436 62.9326 52.4538 60.5036C50.7522 57.2991 52.7506 54.1028 55.3911 54.1028C56.8964 54.1028 57.8024 54.8893 58.3031 55.5655C58.567 55.9219 59.0886 55.9219 59.3525 55.5655C59.8533 54.8893 60.7592 54.1028 62.2646 54.1028C64.905 54.1028 66.9034 57.2991 65.2018 60.5036C63.912 62.9326 60.9155 65.1032 59.5405 66.0116Z"
                  fill="#F5172B"/>
            <path d="M61.7338 26.277C61.0922 26.7009 60.2636 26.7009 59.622 26.277C57.5851 24.9312 53.1457 21.7154 51.2349 18.117C48.714 13.3696 51.6746 8.63428 55.5864 8.63428C57.8166 8.63428 59.1587 9.79946 59.9005 10.8012C60.2915 11.3292 61.0642 11.3292 61.4552 10.8012C62.1971 9.79946 63.5392 8.63428 65.7694 8.63428C69.6812 8.63428 72.6418 13.3696 70.1209 18.117C68.2101 21.7155 63.7707 24.9312 61.7338 26.277Z"
                  fill="#F5172B"/>
            <path d="M11.5198 57.4113C11.0385 57.7292 10.4171 57.7292 9.93593 57.4113C8.40822 56.4019 5.07872 53.9901 3.64562 51.2913C1.75492 47.7307 3.97538 44.1792 6.90922 44.1792C8.58186 44.1792 9.58848 45.0531 10.1448 45.8044C10.4381 46.2004 11.0176 46.2004 11.3109 45.8044C11.8672 45.0531 12.8738 44.1792 14.5465 44.1792C17.4803 44.1792 19.7007 47.7307 17.8101 51.2913C16.377 53.9901 13.0475 56.4019 11.5198 57.4113Z"
                  fill="#F5172B"/>
            <path d="M36.5941 45.3181C31.0827 45.3181 26.9985 44.3312 24.5574 43.5118C23.4447 43.1383 22.5833 44.5175 23.4113 45.3493C25.8439 47.7931 30.9627 49.8978 36.5941 49.8978C42.2255 49.8978 47.3442 47.7931 49.7768 45.3493C50.6048 44.5175 49.7434 43.1383 48.6307 43.5118C46.1896 44.3312 42.1054 45.3181 36.5941 45.3181Z"
                  fill="#FF8800"/>
        </g>
    </g>
    <defs>
        <filter id="filter0_d_710_150" x="2.94482" y="4.625" width="76.1105" height="72.75" filterUnits="userSpaceOnUse"
                color-interpolation-filters="sRGB">
            <feFlood flood-opacity="0" result="BackgroundImageFix"/>
            <feColorMatrix in="SourceAlpha" type="matrix" values="0 0 0 0 0 0 0 0 0 0 0 0 0 0 0 0 0 0 127 0"
                           result="hardAlpha"/>
            <feOffset dx="4" dy="4"/>
            <feGaussianBlur stdDeviation="2"/>
            <feComposite in2="hardAlpha" operator="out"/>
            <feColorMatrix type="matrix" values="0 0 0 0 0 0 0 0 0 0 0 0 0 0 0 0 0 0 0.1 0"/>
            <feBlend mode="normal" in2="BackgroundImageFix" result="effect1_dropShadow_710_150"/>
            <feBlend mode="normal" in="SourceGraphic" in2="effect1_dropShadow_710_150" result="shape"/>
        </filter>
        <clipPath id="clip0_710_150">
            <rect width="74" height="74" fill="white"/>
        </clipPath>
    </defs>
</svg>