<svg xmlns="http://www.w3.org/2000/svg" width="74" height="74" viewBox="0 0 74 74" fill="none">
    <g clip-path="url(#clip0_710_160)">
        <g filter="url(#filter0_d_710_160)">
            <path d="M37 69.375C54.8802 69.375 69.375 54.8802 69.375 37C69.375 19.1198 54.8802 4.625 37 4.625C19.1198 4.625 4.625 19.1198 4.625 37C4.625 54.8802 19.1198 69.375 37 69.375Z"
                  fill="#FFC84D"/>
            <path d="M36.9999 53.4543C33.971 53.4543 31.6073 53.9778 29.9941 54.5055C29.1574 54.7792 28.4729 53.7847 29.018 53.0935C30.4743 51.2469 33.0399 49.0481 36.9999 49.0481C40.96 49.0481 43.5255 51.2469 44.9819 53.0935C45.527 53.7847 44.8425 54.7792 44.0058 54.5055C42.3926 53.9778 40.0289 53.4543 36.9999 53.4543Z"
                  fill="#FF8800"/>
            <path d="M17.1843 35.813C17.1843 35.813 11.9681 41.4089 11.9681 45.9228C11.9681 48.8033 14.304 51.1327 17.1843 51.1334C20.0645 51.1327 22.4004 48.8033 22.4004 45.9228C22.4004 41.4089 17.1843 35.813 17.1843 35.813Z"
                  fill="white"/>
            <path d="M24.8883 23.0955C26.997 22.1122 27.9891 21.0603 28.8132 20.122C29.2884 19.5809 29.9628 19.8302 29.9571 20.5998C29.9448 22.2623 28.9174 24.5221 26.1544 25.8105C23.3914 27.0989 20.9999 26.4333 19.7184 25.3742C19.1252 24.8839 19.3677 24.207 20.0877 24.1908C21.3362 24.1626 22.7796 24.0788 24.8883 23.0955Z"
                  fill="black"/>
            <path d="M49.1117 23.0955C47.003 22.1122 46.0109 21.0603 45.1868 20.122C44.7116 19.5809 44.0372 19.8302 44.0429 20.5998C44.0552 22.2623 45.0826 24.5221 47.8456 25.8105C50.6086 27.0989 53.0002 26.4333 54.2816 25.3742C54.8749 24.8839 54.6323 24.207 53.9123 24.1908C52.6638 24.1626 51.2204 24.0788 49.1117 23.0955Z"
                  fill="black"/>
            <path d="M28.5301 39.0732C30.6897 39.0732 32.4404 37.3225 32.4404 35.163C32.4404 33.0034 30.6897 31.2527 28.5301 31.2527C26.3706 31.2527 24.6199 33.0034 24.6199 35.163C24.6199 37.3225 26.3706 39.0732 28.5301 39.0732Z"
                  fill="black"/>
            <path d="M45.4698 39.0732C47.6294 39.0732 49.3801 37.3225 49.3801 35.163C49.3801 33.0034 47.6294 31.2527 45.4698 31.2527C43.3103 31.2527 41.5596 33.0034 41.5596 35.163C41.5596 37.3225 43.3103 39.0732 45.4698 39.0732Z"
                  fill="black"/>
        </g>
    </g>
    <defs>
        <filter id="filter0_d_710_160" x="4.625" y="4.625" width="72.75" height="72.75" filterUnits="userSpaceOnUse"
                color-interpolation-filters="sRGB">
            <feFlood flood-opacity="0" result="BackgroundImageFix"/>
            <feColorMatrix in="SourceAlpha" type="matrix" values="0 0 0 0 0 0 0 0 0 0 0 0 0 0 0 0 0 0 127 0"
                           result="hardAlpha"/>
            <feOffset dx="4" dy="4"/>
            <feGaussianBlur stdDeviation="2"/>
            <feComposite in2="hardAlpha" operator="out"/>
            <feColorMatrix type="matrix" values="0 0 0 0 0 0 0 0 0 0 0 0 0 0 0 0 0 0 0.1 0"/>
            <feBlend mode="normal" in2="BackgroundImageFix" result="effect1_dropShadow_710_160"/>
            <feBlend mode="normal" in="SourceGraphic" in2="effect1_dropShadow_710_160" result="shape"/>
        </filter>
        <clipPath id="clip0_710_160">
            <rect width="74" height="74" fill="white"/>
        </clipPath>
    </defs>
</svg>