<svg xmlns="http://www.w3.org/2000/svg" width="74" height="74" viewBox="0 0 74 74" fill="none">
    <g clip-path="url(#clip0_710_107)">
        <g filter="url(#filter0_d_710_107)">
            <path d="M69.8727 36.6994C69.8727 18.5443 55.1551 3.82666 37 3.82666C18.8448 3.82666 4.1272 18.5443 4.1272 36.6994C4.1272 50.4541 20.4372 62.0344 28.3436 66.8399C30.9229 68.4076 33.8807 69.2213 36.8991 69.2213C40.1826 69.2213 43.3993 68.2563 46.1186 66.4159C54.0335 61.0589 69.8727 48.8239 69.8727 36.6994Z"
                  fill="#9CC0FF"/>
            <path d="M69.8727 36.6993C69.8727 18.5442 4.1272 18.5442 4.1272 36.6993C4.1272 50.4541 20.4372 62.0343 28.3436 66.8399C30.9229 68.4076 33.8807 69.2213 36.8991 69.2213C40.1826 69.2213 43.3993 68.2562 46.1186 66.4158C54.0335 61.0588 69.8727 48.8239 69.8727 36.6993Z"
                  fill="#FFC84D"/>
            <path d="M31.5547 30.1208C33.2175 25.5523 31.4095 20.7002 27.5164 19.2832C23.6233 17.8662 19.1193 20.421 17.4565 24.9895C15.7938 29.558 17.6018 34.4102 21.4949 35.8271C25.388 37.2441 29.8919 34.6893 31.5547 30.1208Z"
                  fill="white"/>
            <path d="M52.5051 35.8271C56.3982 34.4102 58.2063 29.558 56.5435 24.9895C54.8807 20.4211 50.3767 17.8663 46.4836 19.2832C42.5905 20.7002 40.7825 25.5524 42.4453 30.1208C44.1081 34.6893 48.612 37.2441 52.5051 35.8271Z"
                  fill="white"/>
            <path d="M11.9813 69.5455C9.4366 68.6007 8.78379 66.1052 9.16909 63.7935C10.1497 57.9099 7.68095 52.1879 6.90608 48.761C6.31747 46.1577 8.97157 43.5736 13.267 45.759C17.1848 47.7522 21.4787 56.7042 22.4321 65.2387C22.619 66.9109 21.752 68.5681 20.2138 69.2501C18.1644 70.1586 14.9125 70.6338 11.9813 69.5455Z"
                  fill="#FFA01D"/>
            <path d="M62.0187 69.5455C64.5634 68.6007 65.2162 66.1052 64.8309 63.7935C63.8503 57.9099 66.319 52.1879 67.0939 48.761C67.6825 46.1577 65.0284 43.5736 60.733 45.759C56.8152 47.7522 52.5213 56.7042 51.5678 65.2387C51.381 66.9109 52.248 68.5681 53.7862 69.2501C55.8356 70.1586 59.0875 70.6338 62.0187 69.5455Z"
                  fill="#FFA01D"/>
            <path d="M36.9999 38.5977H36.9999C34.1808 38.5977 31.8955 40.883 31.8955 43.702V50.1003C31.8955 52.9193 34.1808 55.2046 36.9999 55.2046H36.9999C39.819 55.2046 42.1043 52.9193 42.1043 50.1003V43.702C42.1043 40.883 39.819 38.5977 36.9999 38.5977Z"
                  fill="#FF6D00"/>
        </g>
    </g>
    <defs>
        <filter id="filter0_d_710_107" x="4.1272" y="3.82666" width="73.7456" height="74.3469"
                filterUnits="userSpaceOnUse" color-interpolation-filters="sRGB">
            <feFlood flood-opacity="0" result="BackgroundImageFix"/>
            <feColorMatrix in="SourceAlpha" type="matrix" values="0 0 0 0 0 0 0 0 0 0 0 0 0 0 0 0 0 0 127 0"
                           result="hardAlpha"/>
            <feOffset dx="4" dy="4"/>
            <feGaussianBlur stdDeviation="2"/>
            <feComposite in2="hardAlpha" operator="out"/>
            <feColorMatrix type="matrix" values="0 0 0 0 0 0 0 0 0 0 0 0 0 0 0 0 0 0 0.1 0"/>
            <feBlend mode="normal" in2="BackgroundImageFix" result="effect1_dropShadow_710_107"/>
            <feBlend mode="normal" in="SourceGraphic" in2="effect1_dropShadow_710_107" result="shape"/>
        </filter>
        <clipPath id="clip0_710_107">
            <rect width="74" height="74" fill="white"/>
        </clipPath>
    </defs>
</svg>