<svg xmlns="http://www.w3.org/2000/svg" width="74" height="74" viewBox="0 0 74 74" fill="none">
    <g clip-path="url(#clip0_710_70)">
        <g filter="url(#filter0_d_710_70)">
            <path d="M37 69.375C54.8802 69.375 69.375 54.8802 69.375 37C69.375 19.1198 54.8802 4.625 37 4.625C19.1198 4.625 4.625 19.1198 4.625 37C4.625 54.8802 19.1198 69.375 37 69.375Z"
                  fill="#FFC84D"/>
            <path d="M24.3931 20.7609C22.2068 21.5567 21.1268 22.5181 20.2241 23.381C19.7035 23.8786 19.0533 23.5715 19.1261 22.8054C19.2833 21.1503 20.5038 18.9885 23.3685 17.9459C26.2333 16.9032 28.5577 17.7747 29.742 18.9415C30.2902 19.4816 29.9896 20.1348 29.271 20.0882C28.0248 20.0075 26.5795 19.9652 24.3931 20.7609Z"
                  fill="black"/>
            <path d="M49.6068 20.7609C51.7932 21.5567 52.8732 22.5181 53.7759 23.381C54.2964 23.8786 54.9466 23.5715 54.8738 22.8054C54.7166 21.1503 53.4962 18.9885 50.6314 17.9459C47.7667 16.9032 45.4422 17.7747 44.2579 18.9415C43.7097 19.4816 44.0103 20.1348 44.729 20.0882C45.9752 20.0075 47.4205 19.9652 49.6068 20.7609Z"
                  fill="black"/>
            <path d="M28.5301 36.063C30.6897 36.063 32.4404 34.3123 32.4404 32.1527C32.4404 29.9931 30.6897 28.2424 28.5301 28.2424C26.3706 28.2424 24.6199 29.9931 24.6199 32.1527C24.6199 34.3123 26.3706 36.063 28.5301 36.063Z"
                  fill="black"/>
            <path d="M45.4698 36.063C47.6294 36.063 49.3801 34.3123 49.3801 32.1527C49.3801 29.9931 47.6294 28.2424 45.4698 28.2424C43.3103 28.2424 41.5596 29.9931 41.5596 32.1527C41.5596 34.3123 43.3103 36.063 45.4698 36.063Z"
                  fill="black"/>
            <path d="M37 56.425C39.5543 56.425 41.625 54.3544 41.625 51.8C41.625 49.2457 39.5543 47.175 37 47.175C34.4457 47.175 32.375 49.2457 32.375 51.8C32.375 54.3544 34.4457 56.425 37 56.425Z"
                  fill="#FF6D00"/>
        </g>
    </g>
    <defs>
        <filter id="filter0_d_710_70" x="4.625" y="4.625" width="72.75" height="72.75" filterUnits="userSpaceOnUse"
                color-interpolation-filters="sRGB">
            <feFlood flood-opacity="0" result="BackgroundImageFix"/>
            <feColorMatrix in="SourceAlpha" type="matrix" values="0 0 0 0 0 0 0 0 0 0 0 0 0 0 0 0 0 0 127 0"
                           result="hardAlpha"/>
            <feOffset dx="4" dy="4"/>
            <feGaussianBlur stdDeviation="2"/>
            <feComposite in2="hardAlpha" operator="out"/>
            <feColorMatrix type="matrix" values="0 0 0 0 0 0 0 0 0 0 0 0 0 0 0 0 0 0 0.1 0"/>
            <feBlend mode="normal" in2="BackgroundImageFix" result="effect1_dropShadow_710_70"/>
            <feBlend mode="normal" in="SourceGraphic" in2="effect1_dropShadow_710_70" result="shape"/>
        </filter>
        <clipPath id="clip0_710_70">
            <rect width="74" height="74" fill="white"/>
        </clipPath>
    </defs>
</svg>