<svg xmlns="http://www.w3.org/2000/svg" width="74" height="74" viewBox="0 0 74 74" fill="none">
    <g clip-path="url(#clip0_710_48)">
        <g filter="url(#filter0_d_710_48)">
            <path d="M37 69.375C54.8802 69.375 69.375 54.8802 69.375 37C69.375 19.1198 54.8802 4.625 37 4.625C19.1198 4.625 4.625 19.1198 4.625 37C4.625 54.8802 19.1198 69.375 37 69.375Z"
                  fill="#FFC84D"/>
            <path d="M36.9999 53.4772C33.971 53.4772 31.6073 54.0008 29.9941 54.5285C29.1574 54.8022 28.4729 53.8077 29.018 53.1164C30.4743 51.2699 33.0399 49.071 36.9999 49.071C40.96 49.071 43.5255 51.2699 44.9819 53.1164C45.527 53.8077 44.8425 54.8022 44.0058 54.5285C42.3926 54.0008 40.0289 53.4772 36.9999 53.4772Z"
                  fill="#FF8800"/>
            <path d="M20.8859 36.7361C20.3289 36.6456 19.7823 37.0731 19.9703 37.4578C21.0147 39.5953 24.0547 40.8029 27.3387 40.2238C30.6227 39.6448 33.0663 37.4703 33.3167 35.1044C33.3618 34.6786 32.7019 34.4639 32.2094 34.7394C31.1346 35.3408 29.2709 36.1888 26.7069 36.6409C24.143 37.093 22.1016 36.9336 20.8859 36.7361Z"
                  fill="black"/>
            <path d="M53.1141 36.7361C53.6712 36.6456 54.2178 37.0731 54.0298 37.4578C52.9853 39.5953 49.9454 40.8029 46.6614 40.2238C43.3773 39.6448 40.9338 37.4703 40.6833 35.1044C40.6383 34.6786 41.2981 34.4639 41.7906 34.7394C42.8654 35.3408 44.7292 36.1888 47.2931 36.6409C49.8571 37.093 51.8984 36.9336 53.1141 36.7361Z"
                  fill="black"/>
        </g>
    </g>
    <defs>
        <filter id="filter0_d_710_48" x="4.625" y="4.625" width="72.75" height="72.75" filterUnits="userSpaceOnUse"
                color-interpolation-filters="sRGB">
            <feFlood flood-opacity="0" result="BackgroundImageFix"/>
            <feColorMatrix in="SourceAlpha" type="matrix" values="0 0 0 0 0 0 0 0 0 0 0 0 0 0 0 0 0 0 127 0"
                           result="hardAlpha"/>
            <feOffset dx="4" dy="4"/>
            <feGaussianBlur stdDeviation="2"/>
            <feComposite in2="hardAlpha" operator="out"/>
            <feColorMatrix type="matrix" values="0 0 0 0 0 0 0 0 0 0 0 0 0 0 0 0 0 0 0.1 0"/>
            <feBlend mode="normal" in2="BackgroundImageFix" result="effect1_dropShadow_710_48"/>
            <feBlend mode="normal" in="SourceGraphic" in2="effect1_dropShadow_710_48" result="shape"/>
        </filter>
        <clipPath id="clip0_710_48">
            <rect width="74" height="74" fill="white"/>
        </clipPath>
    </defs>
</svg>