<svg xmlns="http://www.w3.org/2000/svg" width="74" height="74" viewBox="0 0 74 74" fill="none">
    <g clip-path="url(#clip0_710_206)">
        <g filter="url(#filter0_d_710_206)">
            <path d="M37 68.4501C54.3694 68.4501 68.4501 54.3694 68.4501 37C68.4501 19.6307 54.3694 5.55005 37 5.55005C19.6307 5.55005 5.55005 19.6307 5.55005 37C5.55005 54.3694 19.6307 68.4501 37 68.4501Z"
                  fill="#FFC84D"/>
            <path d="M17.556 43.7656C21.3994 43.7656 24.5151 40.6499 24.5151 36.8065C24.5151 32.9631 21.3994 29.8474 17.556 29.8474C13.7126 29.8474 10.5969 32.9631 10.5969 36.8065C10.5969 40.6499 13.7126 43.7656 17.556 43.7656Z"
                  fill="#FFA52E"/>
            <path d="M56.4441 43.7656C60.2874 43.7656 63.4031 40.6499 63.4031 36.8065C63.4031 32.9631 60.2874 29.8474 56.4441 29.8474C52.6007 29.8474 49.485 32.9631 49.485 36.8065C49.485 40.6499 52.6007 43.7656 56.4441 43.7656Z"
                  fill="#FFA52E"/>
            <path d="M37.0001 39.9686C33.3675 39.9686 30.5327 39.3407 28.598 38.7079C27.5945 38.3796 26.7736 39.5723 27.4274 40.4013C29.1739 42.6159 32.2508 45.2529 37.0001 45.2529C41.7493 45.2529 44.8262 42.6159 46.5727 40.4013C47.2266 39.5723 46.4056 38.3796 45.4021 38.7079C43.4674 39.3407 40.6327 39.9686 37.0001 39.9686Z"
                  fill="#FF8800"/>
            <path d="M22.9716 28.3695C22.5279 28.5885 22.0178 28.2042 22.1164 27.7194C22.6638 25.0251 24.9819 23.0017 27.7586 23.0017C30.5352 23.0017 32.8533 25.0251 33.4008 27.7194C33.4993 28.2042 32.9892 28.5885 32.5456 28.3695C31.5773 27.8916 29.9264 27.2889 27.7586 27.2889C25.5908 27.2889 23.9399 27.8916 22.9716 28.3695Z"
                  fill="black"/>
            <path d="M51.0286 28.3695C51.4723 28.5885 51.9823 28.2042 51.8838 27.7194C51.3364 25.0251 49.0182 23.0017 46.2416 23.0017C43.4649 23.0017 41.1468 25.0251 40.5994 27.7194C40.5009 28.2042 41.0109 28.5885 41.4546 28.3695C42.4229 27.8916 44.0738 27.2889 46.2416 27.2889C48.4094 27.2889 50.0603 27.8916 51.0286 28.3695Z"
                  fill="black"/>
            <path d="M22.1493 46.6576C21.2953 47.0896 20.9532 48.1322 21.3852 48.9862L22.8105 52.5722L19.7204 50.3068L14.2691 46.3103C13.4973 45.7444 12.4128 45.9114 11.8469 46.6834C11.2811 47.4552 11.448 48.5396 12.2199 49.1055L17.6379 53.1475L17.3577 53.5296L10.0316 48.2285C9.25977 47.6626 8.17534 47.8295 7.60942 48.6014C7.04355 49.3733 7.21055 50.4578 7.9824 51.0236L14.9475 56.1999L14.6717 56.5851L8.76969 52.328C7.99783 51.7621 6.91336 51.9291 6.34748 52.701C5.78157 53.4729 5.9486 54.5573 6.72046 55.1232L13.6269 60.2564L13.3467 60.6385L8.61497 57.2394C7.8431 56.6735 6.75865 56.8405 6.19281 57.6123C5.62689 58.3842 5.79385 59.4687 6.56575 60.0345L11.2642 63.4791L15.6431 66.6871C19.2979 69.3666 24.5138 68.4654 27.2932 64.6744C28.1716 63.4762 28.6994 62.1327 28.898 60.7709L28.9007 60.7632C29.0462 60.1416 29.0367 59.3957 28.931 58.6014C28.8875 58.2102 28.8177 57.8239 28.7202 57.444C28.0638 54.5388 26.5211 51.4609 26.5211 51.4609L24.4779 47.4217C24.0459 46.5677 23.0033 46.2256 22.1493 46.6576Z"
                  fill="#FFA01D"/>
            <path d="M51.8509 46.6576C52.7049 47.0896 53.047 48.1322 52.615 48.9862L51.1897 52.5722L54.2798 50.3068L59.731 46.3103C60.5029 45.7444 61.5874 45.9114 62.1533 46.6834C62.7191 47.4552 62.5521 48.5396 61.7803 49.1055L56.3623 53.1475L56.6425 53.5296L63.9686 48.2285C64.7404 47.6626 65.8249 47.8295 66.3908 48.6014C66.9566 49.3733 66.7896 50.4578 66.0178 51.0236L59.0527 56.1999L59.3285 56.5851L65.2305 52.328C66.0024 51.7621 67.0868 51.9291 67.6527 52.701C68.2186 53.4729 68.0516 54.5573 67.2797 55.1232L60.3733 60.2564L60.6535 60.6385L65.3852 57.2394C66.1571 56.6735 67.2415 56.8405 67.8074 57.6123C68.3733 58.3842 68.2063 59.4687 67.4344 60.0345L62.736 63.4791L58.3571 66.6871C54.7023 69.3666 49.4864 68.4654 46.707 64.6744C45.8286 63.4762 45.3008 62.1327 45.1022 60.7709L45.0995 60.7632C44.9539 60.1416 44.9635 59.3957 45.0692 58.6014C45.1127 58.2102 45.1825 57.8239 45.28 57.444C45.9364 54.5388 47.4791 51.4609 47.4791 51.4609L49.5223 47.4217C49.9543 46.5677 50.9969 46.2256 51.8509 46.6576Z"
                  fill="#FFA01D"/>
        </g>
    </g>
    <defs>
        <filter id="filter0_d_710_206" x="5.55005" y="5.55005" width="70.9" height="70.8999"
                filterUnits="userSpaceOnUse" color-interpolation-filters="sRGB">
            <feFlood flood-opacity="0" result="BackgroundImageFix"/>
            <feColorMatrix in="SourceAlpha" type="matrix" values="0 0 0 0 0 0 0 0 0 0 0 0 0 0 0 0 0 0 127 0"
                           result="hardAlpha"/>
            <feOffset dx="4" dy="4"/>
            <feGaussianBlur stdDeviation="2"/>
            <feComposite in2="hardAlpha" operator="out"/>
            <feColorMatrix type="matrix" values="0 0 0 0 0 0 0 0 0 0 0 0 0 0 0 0 0 0 0.1 0"/>
            <feBlend mode="normal" in2="BackgroundImageFix" result="effect1_dropShadow_710_206"/>
            <feBlend mode="normal" in="SourceGraphic" in2="effect1_dropShadow_710_206" result="shape"/>
        </filter>
        <clipPath id="clip0_710_206">
            <rect width="74" height="74" fill="white"/>
        </clipPath>
    </defs>
</svg>