<svg xmlns="http://www.w3.org/2000/svg" width="74" height="74" viewBox="0 0 74 74" fill="none">
    <g clip-path="url(#clip0_710_187)">
        <g filter="url(#filter0_d_710_187)">
            <path d="M37 69.375C54.8802 69.375 69.375 54.8802 69.375 37C69.375 19.1198 54.8802 4.625 37 4.625C19.1198 4.625 4.625 19.1198 4.625 37C4.625 54.8802 19.1198 69.375 37 69.375Z"
                  fill="#FFC84D"/>
        </g>
        <path d="M24.4531 25.1058C22.3444 26.0891 21.3523 27.141 20.5283 28.0793C20.0531 28.6204 19.3786 28.3711 19.3843 27.6015C19.3967 25.939 20.4241 23.6792 23.187 22.3908C25.95 21.1024 28.3416 21.768 29.6231 22.8271C30.2163 23.3174 29.9737 23.9943 29.2537 24.0105C28.0053 24.0387 26.5618 24.1225 24.4531 25.1058Z"
              fill="black"/>
        <path d="M49.5468 25.1058C51.6554 26.0891 52.6475 27.141 53.4716 28.0793C53.9468 28.6204 54.6213 28.3711 54.6156 27.6015C54.6032 25.939 53.5758 23.6792 50.8128 22.3908C48.0499 21.1024 45.6583 21.768 44.3768 22.8271C43.7836 23.3174 44.0262 23.9943 44.7462 24.0105C45.9946 24.0387 47.4381 24.1225 49.5468 25.1058Z"
              fill="black"/>
        <path d="M37 58.1504C39.5543 58.1504 41.625 56.0797 41.625 53.5254C41.625 50.9711 39.5543 48.9004 37 48.9004C34.4457 48.9004 32.375 50.9711 32.375 53.5254C32.375 56.0797 34.4457 58.1504 37 58.1504Z"
              fill="#FF6D00"/>
        <path d="M42.6873 36.3499L47.602 65.5944C50.5252 64.5097 53.234 62.9992 55.6559 61.1233L51.4924 36.3499H42.6873Z"
              fill="white"/>
        <path d="M22.5075 36.3499L18.344 61.1233C20.7659 62.9992 23.4747 64.5096 26.3979 65.5943L31.3126 36.3499H22.5075Z"
              fill="white"/>
        <path d="M52.3163 37.1837C52.8007 37.3526 53.3576 37.0562 53.25 36.6821C52.6524 34.6035 50.1214 33.0425 47.0899 33.0425C44.0583 33.0425 41.5274 34.6035 40.9297 36.6821C40.8222 37.0562 41.379 37.3526 41.8635 37.1837C42.9207 36.8149 44.7231 36.35 47.0899 36.35C49.4567 36.35 51.2591 36.815 52.3163 37.1837Z"
              fill="black"/>
        <path d="M21.6835 37.1837C21.1991 37.3526 20.6422 37.0562 20.7498 36.6821C21.3475 34.6035 23.8784 33.0425 26.91 33.0425C29.9415 33.0425 32.4724 34.6035 33.0701 36.6821C33.1777 37.0562 32.6208 37.3526 32.1364 37.1837C31.0792 36.8149 29.2768 36.35 26.91 36.35C24.5431 36.35 22.7407 36.815 21.6835 37.1837Z"
              fill="black"/>
    </g>
    <defs>
        <filter id="filter0_d_710_187" x="4.625" y="4.625" width="72.75" height="72.75" filterUnits="userSpaceOnUse"
                color-interpolation-filters="sRGB">
            <feFlood flood-opacity="0" result="BackgroundImageFix"/>
            <feColorMatrix in="SourceAlpha" type="matrix" values="0 0 0 0 0 0 0 0 0 0 0 0 0 0 0 0 0 0 127 0"
                           result="hardAlpha"/>
            <feOffset dx="4" dy="4"/>
            <feGaussianBlur stdDeviation="2"/>
            <feComposite in2="hardAlpha" operator="out"/>
            <feColorMatrix type="matrix" values="0 0 0 0 0 0 0 0 0 0 0 0 0 0 0 0 0 0 0.1 0"/>
            <feBlend mode="normal" in2="BackgroundImageFix" result="effect1_dropShadow_710_187"/>
            <feBlend mode="normal" in="SourceGraphic" in2="effect1_dropShadow_710_187" result="shape"/>
        </filter>
        <clipPath id="clip0_710_187">
            <rect width="74" height="74" fill="white"/>
        </clipPath>
    </defs>
</svg>