<svg xmlns="http://www.w3.org/2000/svg" width="74" height="74" viewBox="0 0 74 74" fill="none">
    <g clip-path="url(#clip0_710_80)">
        <g filter="url(#filter0_d_710_80)">
            <path d="M37 69.375C54.8802 69.375 69.375 54.8802 69.375 37C69.375 19.1198 54.8802 4.625 37 4.625C19.1198 4.625 4.625 19.1198 4.625 37C4.625 54.8802 19.1198 69.375 37 69.375Z"
                  fill="#FFC84D"/>
            <path d="M16.6559 37.0407C15.4195 36.7443 14.2447 37.7896 14.4044 39.051C15.8249 50.2708 25.3944 58.9486 37 58.9486C48.6056 58.9486 58.175 50.2708 59.5955 39.051C59.7552 37.7896 58.5804 36.7443 57.344 37.0407C51.3708 38.4727 44.4223 39.296 37 39.296C29.5777 39.296 22.6291 38.4727 16.6559 37.0407Z"
                  fill="#FF6D00"/>
            <path d="M36.8857 44.7762C44.474 44.7762 51.4946 41.9102 57.2393 37.0549C51.2869 38.4734 44.3837 39.2958 36.9999 39.2958C29.4915 39.2958 22.4682 38.453 16.4485 36.99C22.2083 41.8867 29.2612 44.7762 36.8857 44.7762Z"
                  fill="white"/>
            <path d="M15.5074 43.4452C13.8493 45.444 10.8849 45.7202 8.8861 44.0621C6.88733 42.4041 6.6111 39.4396 8.26915 37.4409C9.92719 35.4421 19.6081 31.1367 19.6081 31.1367C19.6081 31.1367 17.1654 41.4464 15.5074 43.4452Z"
                  fill="white"/>
            <path d="M58.7679 42.4446C60.5937 44.2914 63.571 44.3085 65.4178 42.4827C67.2646 40.6569 67.2816 37.6796 65.4558 35.8328C63.63 33.986 53.611 30.54 53.611 30.54C53.611 30.54 56.9421 40.5978 58.7679 42.4446Z"
                  fill="white"/>
            <path d="M22.5588 29.7593C22.1021 29.9847 21.5771 29.5892 21.6785 29.09C22.242 26.3165 24.6283 24.2336 27.4866 24.2336C30.3449 24.2336 32.7313 26.3165 33.2948 29.09C33.3962 29.5892 32.8712 29.9847 32.4144 29.7593C31.4176 29.2673 29.7182 28.6469 27.4866 28.6469C25.2551 28.6469 23.5556 29.2673 22.5588 29.7593Z"
                  fill="black"/>
            <path d="M51.4412 29.7593C51.8979 29.9847 52.4229 29.5892 52.3215 29.09C51.758 26.3165 49.3717 24.2336 46.5134 24.2336C43.6551 24.2336 41.2687 26.3165 40.7052 29.09C40.6038 29.5892 41.1288 29.9847 41.5856 29.7593C42.5824 29.2673 44.2818 28.6469 46.5134 28.6469C48.7449 28.6469 50.4444 29.2673 51.4412 29.7593Z"
                  fill="black"/>
        </g>
    </g>
    <defs>
        <filter id="filter0_d_710_80" x="4.625" y="4.625" width="72.75" height="72.75" filterUnits="userSpaceOnUse"
                color-interpolation-filters="sRGB">
            <feFlood flood-opacity="0" result="BackgroundImageFix"/>
            <feColorMatrix in="SourceAlpha" type="matrix" values="0 0 0 0 0 0 0 0 0 0 0 0 0 0 0 0 0 0 127 0"
                           result="hardAlpha"/>
            <feOffset dx="4" dy="4"/>
            <feGaussianBlur stdDeviation="2"/>
            <feComposite in2="hardAlpha" operator="out"/>
            <feColorMatrix type="matrix" values="0 0 0 0 0 0 0 0 0 0 0 0 0 0 0 0 0 0 0.1 0"/>
            <feBlend mode="normal" in2="BackgroundImageFix" result="effect1_dropShadow_710_80"/>
            <feBlend mode="normal" in="SourceGraphic" in2="effect1_dropShadow_710_80" result="shape"/>
        </filter>
        <clipPath id="clip0_710_80">
            <rect width="74" height="74" fill="white"/>
        </clipPath>
    </defs>
</svg>