<svg xmlns="http://www.w3.org/2000/svg" width="74" height="74" viewBox="0 0 74 74" fill="none">
    <g clip-path="url(#clip0_710_228)">
        <g filter="url(#filter0_d_710_228)">
            <path d="M37 69.375C54.8802 69.375 69.375 54.8802 69.375 37C69.375 19.1198 54.8802 4.625 37 4.625C19.1198 4.625 4.625 19.1198 4.625 37C4.625 54.8802 19.1198 69.375 37 69.375Z"
                  fill="#FFC84D"/>
            <path d="M28.6581 35.2298C30.8711 35.2298 32.6651 33.4358 32.6651 31.2228C32.6651 29.0098 30.8711 27.2158 28.6581 27.2158C26.4451 27.2158 24.6511 29.0098 24.6511 31.2228C24.6511 33.4358 26.4451 35.2298 28.6581 35.2298Z"
                  fill="black"/>
            <path d="M45.3419 35.2297C47.5172 35.2297 49.2805 33.1417 49.2805 30.566C49.2805 27.9903 47.5172 25.9023 45.3419 25.9023C43.1667 25.9023 41.4033 27.9903 41.4033 30.566C41.4033 33.1417 43.1667 35.2297 45.3419 35.2297Z"
                  fill="black"/>
            <path d="M27.9162 23.3435C30.0623 23.5313 31.2586 24.1324 32.2728 24.6878C32.8576 25.0081 33.3655 24.5776 33.1168 23.9098C32.5796 22.4672 30.97 20.8263 28.158 20.5803C25.3459 20.3342 23.4758 21.6707 22.6963 22.9981C22.3354 23.6126 22.7608 24.1247 23.3924 23.9109C24.4876 23.54 25.7701 23.1558 27.9162 23.3435Z"
                  fill="black"/>
            <path d="M46.3293 17.7935C44.1832 17.9813 42.9869 18.5823 41.9727 19.1377C41.3879 19.458 40.88 19.0276 41.1287 18.3597C41.6659 16.9172 43.2755 15.2762 46.0876 15.0302C48.8996 14.7842 50.7697 16.1207 51.5493 17.4481C51.9101 18.0625 51.4847 18.5747 50.8531 18.3608C49.7579 17.9899 48.4754 17.6057 46.3293 17.7935Z"
                  fill="black"/>
            <path d="M47.54 46.5057H26.4601C25.4376 46.5057 24.6101 45.6773 24.6101 44.6557C24.6101 43.634 25.4376 42.8057 26.4601 42.8057H47.54C48.5625 42.8057 49.39 43.634 49.39 44.6557C49.39 45.6773 48.5626 46.5057 47.54 46.5057Z"
                  fill="#FF8800"/>
        </g>
    </g>
    <defs>
        <filter id="filter0_d_710_228" x="4.625" y="4.625" width="72.75" height="72.75" filterUnits="userSpaceOnUse"
                color-interpolation-filters="sRGB">
            <feFlood flood-opacity="0" result="BackgroundImageFix"/>
            <feColorMatrix in="SourceAlpha" type="matrix" values="0 0 0 0 0 0 0 0 0 0 0 0 0 0 0 0 0 0 127 0"
                           result="hardAlpha"/>
            <feOffset dx="4" dy="4"/>
            <feGaussianBlur stdDeviation="2"/>
            <feComposite in2="hardAlpha" operator="out"/>
            <feColorMatrix type="matrix" values="0 0 0 0 0 0 0 0 0 0 0 0 0 0 0 0 0 0 0.1 0"/>
            <feBlend mode="normal" in2="BackgroundImageFix" result="effect1_dropShadow_710_228"/>
            <feBlend mode="normal" in="SourceGraphic" in2="effect1_dropShadow_710_228" result="shape"/>
        </filter>
        <clipPath id="clip0_710_228">
            <rect width="74" height="74" fill="white"/>
        </clipPath>
    </defs>
</svg>