<svg xmlns="http://www.w3.org/2000/svg" width="74" height="74" viewBox="0 0 74 74" fill="none">
    <g clip-path="url(#clip0_710_38)">
        <g filter="url(#filter0_d_710_38)">
            <path d="M37 69.375C54.8802 69.375 69.375 54.8802 69.375 37C69.375 19.1198 54.8802 4.625 37 4.625C19.1198 4.625 4.625 19.1198 4.625 37C4.625 54.8802 19.1198 69.375 37 69.375Z"
                  fill="#FFC84D"/>
            <path d="M19.8333 40.3535C17.7008 40.3535 16.714 41.5582 17.136 42.8712C19.0035 48.6832 27.1793 53.0593 36.9823 53.0593C46.7853 53.0593 54.9611 48.6832 56.8286 42.8712C57.2505 41.5582 56.6964 40.5232 54.5639 40.5232L19.8333 40.3535Z"
                  fill="#FF6D00"/>
            <path d="M27.771 54.4911C27.771 59.0988 31.6209 62.8341 36.37 62.8341C41.1192 62.8341 44.9691 59.0988 44.9691 54.4911L45.0699 42.8994H27.8719L27.771 54.4911Z"
                  fill="#F5172B"/>
            <path d="M54.5639 40.5232C50.8766 43.285 44.5256 45.1085 37.3094 45.1085C29.9464 45.1085 23.4843 43.2101 19.8333 40.3535L54.5639 40.5232Z"
                  fill="white"/>
            <path d="M33.356 27.544C33.356 29.5154 28.4799 32.0948 23.9199 33.562C23.2912 33.7643 22.7359 33.1585 23.1418 32.7101L26.2383 29.2891C27.1732 28.2562 27.1732 26.8318 26.2381 25.799L23.1404 22.3775C22.7345 21.9291 23.2897 21.3232 23.9185 21.5255C28.4789 22.9925 33.356 25.5723 33.356 27.544Z"
                  fill="black"/>
            <path d="M40.6439 27.544C40.6439 29.5154 45.52 32.0948 50.0801 33.562C50.7088 33.7643 51.264 33.1585 50.8582 32.7101L47.7617 29.2891C46.8267 28.2562 46.8268 26.8318 47.7619 25.799L50.8595 22.3775C51.2655 21.9291 50.7103 21.3232 50.0815 21.5255C45.5211 22.9925 40.6439 25.5723 40.6439 27.544Z"
                  fill="black"/>
        </g>
    </g>
    <defs>
        <filter id="filter0_d_710_38" x="4.625" y="4.625" width="72.75" height="72.75" filterUnits="userSpaceOnUse"
                color-interpolation-filters="sRGB">
            <feFlood flood-opacity="0" result="BackgroundImageFix"/>
            <feColorMatrix in="SourceAlpha" type="matrix" values="0 0 0 0 0 0 0 0 0 0 0 0 0 0 0 0 0 0 127 0"
                           result="hardAlpha"/>
            <feOffset dx="4" dy="4"/>
            <feGaussianBlur stdDeviation="2"/>
            <feComposite in2="hardAlpha" operator="out"/>
            <feColorMatrix type="matrix" values="0 0 0 0 0 0 0 0 0 0 0 0 0 0 0 0 0 0 0.1 0"/>
            <feBlend mode="normal" in2="BackgroundImageFix" result="effect1_dropShadow_710_38"/>
            <feBlend mode="normal" in="SourceGraphic" in2="effect1_dropShadow_710_38" result="shape"/>
        </filter>
        <clipPath id="clip0_710_38">
            <rect width="74" height="74" fill="white"/>
        </clipPath>
    </defs>
</svg>