<svg xmlns="http://www.w3.org/2000/svg" width="74" height="74" viewBox="0 0 74 74" fill="none">
    <g clip-path="url(#clip0_710_29)">
        <g filter="url(#filter0_d_710_29)">
            <path d="M37 69.375C54.8802 69.375 69.375 54.8802 69.375 37C69.375 19.1198 54.8802 4.625 37 4.625C19.1198 4.625 4.625 19.1198 4.625 37C4.625 54.8802 19.1198 69.375 37 69.375Z"
                  fill="#FFC84D"/>
            <path d="M22.5588 31.8154C22.1021 32.0408 21.5771 31.6453 21.6785 31.1462C22.242 28.3727 24.6283 26.2898 27.4866 26.2898C30.3449 26.2898 32.7313 28.3727 33.2948 31.1462C33.3962 31.6453 32.8712 32.0408 32.4144 31.8154C31.4176 31.3234 29.7182 30.703 27.4866 30.703C25.2551 30.703 23.5556 31.3234 22.5588 31.8154Z"
                  fill="black"/>
            <path d="M51.4412 31.8154C51.8979 32.0408 52.4229 31.6453 52.3215 31.1462C51.758 28.3727 49.3717 26.2898 46.5134 26.2898C43.6551 26.2898 41.2687 28.3727 40.7052 31.1462C40.6038 31.6453 41.1288 32.0408 41.5856 31.8154C42.5824 31.3234 44.2818 30.703 46.5134 30.703C48.7449 30.703 50.4444 31.3234 51.4412 31.8154Z"
                  fill="black"/>
            <path d="M38.2879 44.7483C39.1467 44.196 40.6595 43.4293 40.6595 41.8825C40.6595 41.034 39.8559 39.8418 37.8173 39.2266C37.1511 39.0256 36.6867 38.8933 36.6926 38.5066C36.6985 38.1198 37.0935 38.0598 37.7291 38.0598C38.3469 38.0598 43.0473 38.8922 43.2267 41.8478C43.3583 44.0149 41.8859 44.9039 40.7006 45.7985C41.8859 46.6931 43.5214 48.3025 43.394 50.1075C43.1633 53.3758 39.4152 54.1519 37.973 54.1519C37.1204 54.1519 36.602 54.0782 36.5451 53.7124C36.4882 53.3467 36.8557 53.1778 37.8159 52.7966C39.4169 52.161 40.5448 51.1585 40.5448 49.8293C40.5448 48.1081 38.9982 47.0871 38.285 46.6343C37.5717 46.1815 37.1158 46.0147 37.1303 45.6883C37.1472 45.3057 37.5893 45.1976 38.2879 44.7483Z"
                  fill="#FF8800"/>
            <path d="M16.9841 46.9482C20.5449 46.9482 23.4315 44.0616 23.4315 40.5008C23.4315 36.94 20.5449 34.0535 16.9841 34.0535C13.4233 34.0535 10.5367 36.94 10.5367 40.5008C10.5367 44.0616 13.4233 46.9482 16.9841 46.9482Z"
                  fill="#FFA52E"/>
            <path d="M57.0158 46.9482C60.5766 46.9482 63.4632 44.0616 63.4632 40.5008C63.4632 36.94 60.5766 34.0535 57.0158 34.0535C53.4551 34.0535 50.5685 36.94 50.5685 40.5008C50.5685 44.0616 53.4551 46.9482 57.0158 46.9482Z"
                  fill="#FFA52E"/>
        </g>
    </g>
    <defs>
        <filter id="filter0_d_710_29" x="4.625" y="4.625" width="72.75" height="72.75" filterUnits="userSpaceOnUse"
                color-interpolation-filters="sRGB">
            <feFlood flood-opacity="0" result="BackgroundImageFix"/>
            <feColorMatrix in="SourceAlpha" type="matrix" values="0 0 0 0 0 0 0 0 0 0 0 0 0 0 0 0 0 0 127 0"
                           result="hardAlpha"/>
            <feOffset dx="4" dy="4"/>
            <feGaussianBlur stdDeviation="2"/>
            <feComposite in2="hardAlpha" operator="out"/>
            <feColorMatrix type="matrix" values="0 0 0 0 0 0 0 0 0 0 0 0 0 0 0 0 0 0 0.1 0"/>
            <feBlend mode="normal" in2="BackgroundImageFix" result="effect1_dropShadow_710_29"/>
            <feBlend mode="normal" in="SourceGraphic" in2="effect1_dropShadow_710_29" result="shape"/>
        </filter>
        <clipPath id="clip0_710_29">
            <rect width="74" height="74" fill="white"/>
        </clipPath>
    </defs>
</svg>