<svg xmlns="http://www.w3.org/2000/svg" width="74" height="74" viewBox="0 0 74 74" fill="none">
    <g clip-path="url(#clip0_710_198)">
        <g filter="url(#filter0_d_710_198)">
            <path d="M37 69.375C54.8802 69.375 69.375 54.8802 69.375 37C69.375 19.1198 54.8802 4.625 37 4.625C19.1198 4.625 4.625 19.1198 4.625 37C4.625 54.8802 19.1198 69.375 37 69.375Z"
                  fill="#FFC84D"/>
            <path d="M50.5178 54.3354C53.3595 54.8557 55.6097 52.0829 54.6285 49.3657C52.0222 42.1488 45.1162 36.99 36.9999 36.99C28.8836 36.99 21.9778 42.1488 19.3715 49.3657C18.3902 52.0829 20.6405 54.8557 23.4822 54.3354C27.6108 53.5794 32.1841 53.1582 36.9999 53.1582C41.8157 53.1582 46.3892 53.5794 50.5178 54.3354Z"
                  fill="#FF6D00"/>
            <path d="M25.3147 41.1024C28.956 40.539 32.8764 40.2079 37.0001 40.2079C41.1237 40.2079 45.0441 40.539 48.6854 41.1024C45.4804 38.5372 41.4259 36.9897 37.0001 36.9897C32.5742 36.9897 28.5197 38.5374 25.3147 41.1024Z"
                  fill="white"/>
            <path d="M33.356 27.3926C33.356 29.3641 28.4799 31.9435 23.9199 33.4107C23.2912 33.613 22.7359 33.0071 23.1418 32.5587L26.2383 29.1377C27.1732 28.1048 27.1732 26.6805 26.2381 25.6476L23.1404 22.2261C22.7345 21.7777 23.2897 21.1718 23.9185 21.3741C28.4789 22.8412 33.356 25.4209 33.356 27.3926Z"
                  fill="black"/>
            <path d="M40.6439 27.3926C40.6439 29.3641 45.52 31.9435 50.0801 33.4107C50.7088 33.613 51.264 33.0071 50.8582 32.5587L47.7617 29.1377C46.8267 28.1048 46.8268 26.6805 47.7619 25.6476L50.8595 22.2261C51.2655 21.7777 50.7103 21.1718 50.0815 21.3741C45.5211 22.8412 40.6439 25.4209 40.6439 27.3926Z"
                  fill="black"/>
        </g>
    </g>
    <defs>
        <filter id="filter0_d_710_198" x="4.625" y="4.625" width="72.75" height="72.75" filterUnits="userSpaceOnUse"
                color-interpolation-filters="sRGB">
            <feFlood flood-opacity="0" result="BackgroundImageFix"/>
            <feColorMatrix in="SourceAlpha" type="matrix" values="0 0 0 0 0 0 0 0 0 0 0 0 0 0 0 0 0 0 127 0"
                           result="hardAlpha"/>
            <feOffset dx="4" dy="4"/>
            <feGaussianBlur stdDeviation="2"/>
            <feComposite in2="hardAlpha" operator="out"/>
            <feColorMatrix type="matrix" values="0 0 0 0 0 0 0 0 0 0 0 0 0 0 0 0 0 0 0.1 0"/>
            <feBlend mode="normal" in2="BackgroundImageFix" result="effect1_dropShadow_710_198"/>
            <feBlend mode="normal" in="SourceGraphic" in2="effect1_dropShadow_710_198" result="shape"/>
        </filter>
        <clipPath id="clip0_710_198">
            <rect width="74" height="74" fill="white"/>
        </clipPath>
    </defs>
</svg>