<svg xmlns="http://www.w3.org/2000/svg" width="74" height="74" viewBox="0 0 74 74" fill="none">
    <g clip-path="url(#clip0_710_218)">
        <g filter="url(#filter0_d_710_218)">
            <path d="M37.9248 69.2193C55.8049 69.2193 70.2996 54.7679 70.2996 36.9411C70.2996 19.1143 55.8049 4.66284 37.9248 4.66284C20.0446 4.66284 5.54993 19.1143 5.54993 36.9411C5.54993 54.7679 20.0446 69.2193 37.9248 69.2193Z"
                  fill="#FFC84D"/>
            <path d="M35.1184 44.8263C37.8056 45.0607 39.8019 45.7459 41.0649 46.3229C41.6071 46.5706 42.1423 45.9689 41.8359 45.4588C40.8484 43.8151 38.8847 41.5691 35.4306 41.2678C31.9766 40.9666 29.6515 42.8385 28.3928 44.2862C28.0021 44.7355 28.4245 45.4207 29.0016 45.2707C30.3458 44.9211 32.4312 44.5919 35.1184 44.8263Z"
                  fill="#FF8800"/>
            <path d="M26.6903 20.0427C28.8989 20.2354 30.13 20.8521 31.1737 21.422C31.7756 21.7506 32.2983 21.3089 32.0423 20.6237C31.4895 19.1436 29.833 17.4599 26.9391 17.2075C24.0452 16.9551 22.1207 18.3264 21.3184 19.6883C20.947 20.3188 21.3848 20.8442 22.0348 20.6248C23.1619 20.2443 24.4817 19.8501 26.6903 20.0427Z"
                  fill="black"/>
            <path d="M45.6395 14.3482C43.4309 14.5408 42.1997 15.1575 41.156 15.7274C40.5542 16.056 40.0315 15.6143 40.2874 14.9291C40.8403 13.449 42.4968 11.7653 45.3907 11.5129C48.2846 11.2605 50.2091 12.6318 51.0114 13.9937C51.3827 14.6242 50.9449 15.1496 50.295 14.9302C49.1679 14.5497 47.848 14.1555 45.6395 14.3482Z"
                  fill="black"/>
            <path d="M27.4539 32.2385C29.7313 32.2385 31.5775 30.3978 31.5775 28.1272C31.5775 25.8566 29.7313 24.0159 27.4539 24.0159C25.1765 24.0159 23.3303 25.8566 23.3303 28.1272C23.3303 30.3978 25.1765 32.2385 27.4539 32.2385Z"
                  fill="black"/>
            <path d="M44.6233 32.2387C46.8619 32.2387 48.6766 30.0963 48.6766 27.4536C48.6766 24.8108 46.8619 22.6685 44.6233 22.6685C42.3848 22.6685 40.5701 24.8108 40.5701 27.4536C40.5701 30.0963 42.3848 32.2387 44.6233 32.2387Z"
                  fill="black"/>
            <path d="M15.6809 59.9669C15.6809 56.7165 15.9764 52.8162 16.124 50.652C16.2364 49.005 16.352 45.9728 16.5605 44.5965C16.7756 43.1768 17.5951 41.9765 19.1628 42.5077C20.6614 43.0156 21.415 45.2044 21.415 47.0911C21.415 48.9777 21.555 50.2335 22.682 50.8075C23.8089 51.3815 25.2032 51.303 27.4501 51.303C29.6971 51.303 37.5072 51.1448 41.4741 51.1448C42.39 51.1448 43.8046 51.2765 44.4539 51.9205C45.2628 52.7229 45.0991 54.2815 43.895 54.8138C41.9613 55.6686 37.4115 55.4732 36.2038 55.9973C34.9961 56.5214 35.0913 57.3824 35.0206 58.6937C34.9339 60.3029 35.3133 64.5032 34.9345 66.2573C34.5051 68.2459 33.3288 69.3419 31.5614 69.3419H23.9596C19.4178 69.3419 15.6809 64.8589 15.6809 59.9669Z"
                  fill="#FFA01D"/>
        </g>
    </g>
    <defs>
        <filter id="filter0_d_710_218" x="5.54993" y="4.66284" width="72.7498" height="72.679"
                filterUnits="userSpaceOnUse" color-interpolation-filters="sRGB">
            <feFlood flood-opacity="0" result="BackgroundImageFix"/>
            <feColorMatrix in="SourceAlpha" type="matrix" values="0 0 0 0 0 0 0 0 0 0 0 0 0 0 0 0 0 0 127 0"
                           result="hardAlpha"/>
            <feOffset dx="4" dy="4"/>
            <feGaussianBlur stdDeviation="2"/>
            <feComposite in2="hardAlpha" operator="out"/>
            <feColorMatrix type="matrix" values="0 0 0 0 0 0 0 0 0 0 0 0 0 0 0 0 0 0 0.1 0"/>
            <feBlend mode="normal" in2="BackgroundImageFix" result="effect1_dropShadow_710_218"/>
            <feBlend mode="normal" in="SourceGraphic" in2="effect1_dropShadow_710_218" result="shape"/>
        </filter>
        <clipPath id="clip0_710_218">
            <rect width="74" height="74" fill="white"/>
        </clipPath>
    </defs>
</svg>