<svg xmlns="http://www.w3.org/2000/svg" width="80" height="80" viewBox="0 0 80 80" fill="none">
    <g clip-path="url(#clip0_117_123)">
        <path d="M42.922 58.1325C29.914 58.1325 19.13 50.6325 16.958 40.7725C16.696 41.9585 16.534 43.1725 16.534 44.4185C16.534 56.0205 28.348 65.4245 42.922 65.4245C57.496 65.4245 69.31 56.0205 69.31 44.4185C69.31 43.1725 69.148 41.9585 68.886 40.7725C66.714 50.6325 55.93 58.1325 42.922 58.1325Z"
              fill="#FDAEB3"/>
        <path d="M62.666 22.8938C59.806 15.7438 49.442 10.8178 37.368 11.4478C27.184 11.9798 18.634 16.3198 14.94 22.1098C19.918 18.1358 27.728 15.3438 36.638 14.8798C47.948 14.2898 57.874 17.6118 62.666 22.8938Z"
              fill="#FDAEB3"/>
        <path d="M55.048 33.092C55.96 33.694 57.138 33.694 58.052 33.092C60.948 31.178 67.262 26.604 69.98 21.486C73.566 14.734 69.354 8 63.792 8C60.62 8 58.712 9.658 57.656 11.082C57.1 11.832 56 11.832 55.444 11.082C54.388 9.658 52.48 8 49.308 8C43.744 8 39.534 14.734 43.12 21.486C45.838 26.604 52.152 31.178 55.048 33.092Z"
              fill="#D12030"/>
        <path d="M28.75 71.3157C30.13 72.2277 31.914 72.2277 33.294 71.3157C37.678 68.4197 47.232 61.4997 51.344 53.7557C56.77 43.5397 50.398 33.3477 41.98 33.3477C37.18 33.3477 34.292 35.8557 32.696 38.0117C31.854 39.1477 30.192 39.1477 29.35 38.0117C27.754 35.8557 24.866 33.3477 20.066 33.3477C11.648 33.3477 5.276 43.5377 10.702 53.7557C14.814 61.4997 24.368 68.4197 28.752 71.3157H28.75Z"
              fill="#EF4452"/>
    </g>
    <defs>
        <clipPath id="clip0_117_123">
            <rect width="80" height="80" fill="white"/>
        </clipPath>
    </defs>
</svg>