<svg xmlns="http://www.w3.org/2000/svg" width="74" height="74" viewBox="0 0 74 74" fill="none">
    <g clip-path="url(#clip0_270_1033)">
        <g filter="url(#filter0_d_270_1033)">
            <path d="M39.7195 70.1836C38.7686 70.1836 37.9601 69.4547 37.8769 68.4909C37.7899 67.4734 38.5447 66.578 39.5641 66.4892C42.9533 66.2006 46.2333 65.3366 49.3154 63.9232C50.2423 63.4996 51.3412 63.9047 51.7685 64.8353C52.194 65.764 51.787 66.861 50.8565 67.2884C47.3859 68.8794 43.6914 69.8506 39.8767 70.1781C39.8231 70.1818 39.7713 70.1836 39.7195 70.1836ZM32.5674 69.8876C32.4767 69.8876 32.3842 69.8821 32.2917 69.8673C28.3975 69.2864 24.7622 68.1598 21.4914 66.5169C20.5775 66.0582 20.2094 64.9463 20.6682 64.0342C21.127 63.1203 22.2351 62.7503 23.1509 63.211C26.0702 64.6762 29.3299 65.6844 32.8356 66.208C33.8457 66.3597 34.5432 67.2995 34.3933 68.3114C34.2564 69.229 33.4665 69.8895 32.5655 69.8895L32.5674 69.8876ZM56.2178 63.7475C55.6646 63.7475 55.117 63.5014 54.7526 63.0297C54.1273 62.2212 54.2771 61.0594 55.0837 60.4341C57.7736 58.3547 60.0695 55.8517 61.9084 52.9953C62.4597 52.1369 63.6048 51.8871 64.4651 52.4421C65.3235 52.9953 65.5714 54.1386 65.0182 54.9988C62.9518 58.2086 60.371 61.0224 57.3463 63.3608C57.0096 63.6217 56.6118 63.7475 56.2159 63.7475H56.2178ZM16.3484 62.7596C15.9229 62.7596 15.4974 62.6134 15.1478 62.3156C12.2525 59.8421 9.84385 56.8636 7.99015 53.4615C7.4999 52.5642 7.8329 51.4413 8.7283 50.9529C9.6237 50.4608 10.7485 50.7938 11.2369 51.691C12.8741 54.6954 14.9979 57.3224 17.5491 59.5017C18.3261 60.1659 18.4186 61.3332 17.7544 62.1102C17.3881 62.5376 16.8701 62.7596 16.3484 62.7596ZM66.6314 49.4192C66.4261 49.4192 66.2152 49.3841 66.0098 49.3101C65.0478 48.966 64.5446 47.9096 64.8887 46.9458C66.0246 43.7601 66.6 40.4134 66.6 37.0002C66.6 35.979 67.4288 35.0836 68.45 35.0836C69.4712 35.0836 70.3 35.8458 70.3 36.867V36.9983C70.3 40.8371 69.6506 44.6018 68.3723 48.1871C68.1022 48.9438 67.3899 49.4174 66.6296 49.4174L66.6314 49.4192ZM6.9301 47.7838C6.1198 47.7838 5.3761 47.2473 5.14855 46.4296C4.2994 43.3753 3.86835 40.2025 3.86835 36.9983C3.86835 36.3897 3.88315 35.781 3.9146 35.1742C3.9664 34.153 4.8396 33.3501 5.8571 33.4223C6.87645 33.4741 7.6627 34.3454 7.60905 35.3648C7.5813 35.9087 7.56835 36.4526 7.56835 36.9983C7.56835 39.8677 7.95315 42.7074 8.7135 45.438C8.9873 46.4222 8.41195 47.4416 7.42775 47.7154C7.26125 47.7616 7.09475 47.7838 6.9301 47.7838ZM67.6119 31.6037C66.7739 31.6037 66.0135 31.0302 65.8137 30.1792C65.0349 26.877 63.6992 23.756 61.8473 20.9033C61.2905 20.0468 61.5347 18.8998 62.3912 18.3448C63.2478 17.7879 64.3948 18.034 64.9498 18.8887C67.0329 22.0984 68.5351 25.6116 69.4138 29.3282C69.6488 30.3235 69.0327 31.3188 68.0393 31.5538C67.895 31.5889 67.7525 31.6037 67.6119 31.6037ZM6.89865 30.0386C6.7377 30.0386 6.57305 30.0164 6.4084 29.972C5.42235 29.7019 4.8433 28.6844 5.1134 27.6984C6.14015 23.9558 7.76075 20.4945 9.93265 17.4161C10.5228 16.5799 11.6772 16.3801 12.5115 16.9702C13.3477 17.5585 13.5475 18.7129 12.9574 19.5491C11.0315 22.2779 9.5941 25.3489 8.68205 28.677C8.45635 29.4984 7.71265 30.0386 6.89865 30.0386ZM58.8392 16.2173C58.3767 16.2173 57.9142 16.0452 57.5553 15.6993C55.1041 13.335 52.2976 11.4258 49.2081 10.0253C48.2776 9.60355 47.865 8.50649 48.2868 7.57594C48.7068 6.6454 49.8038 6.22915 50.7362 6.65465C54.2087 8.23084 57.3685 10.3768 60.1231 13.0353C60.8576 13.7457 60.8798 14.9167 60.1694 15.6512C59.8068 16.0286 59.3239 16.2173 58.8392 16.2173ZM16.2541 15.024C15.7342 15.024 15.2181 14.8057 14.8518 14.3821C14.1839 13.6088 14.2709 12.4396 15.0442 11.7736C17.8969 9.3131 21.1954 7.37985 24.851 6.0238C25.8056 5.66675 26.8731 6.157 27.2283 7.1153C27.5835 8.0736 27.0951 9.13735 26.1368 9.49255C22.8974 10.695 19.9781 12.4044 17.4603 14.5763C17.1106 14.8779 16.6814 15.024 16.2541 15.024ZM43.1475 7.9996C43.0291 7.9996 42.907 7.98849 42.7868 7.96445C40.8961 7.5889 38.9499 7.4002 37.0018 7.4002C35.5903 7.45755 34.1251 7.5963 32.7172 7.8109C31.7127 7.97185 30.7636 7.27255 30.6082 6.2606C30.4547 5.2505 31.1484 4.307 32.1585 4.1516C33.7014 3.91665 35.3072 3.76495 36.9278 3.7002H36.9519C39.2052 3.7002 41.3863 3.91295 43.5046 4.3329C44.5073 4.53085 45.1585 5.5058 44.9605 6.50665C44.7866 7.38725 44.0133 7.9996 43.1475 7.9996Z"
                  fill="#FFC84D"/>
            <path d="M28.527 35.2005C30.6052 35.2005 32.2899 33.0056 32.2899 30.298C32.2899 27.5904 30.6052 25.3955 28.527 25.3955C26.4488 25.3955 24.7641 27.5904 24.7641 30.298C24.7641 33.0056 26.4488 35.2005 28.527 35.2005Z"
                  fill="#FF8800"/>
            <path d="M45.473 35.2005C47.5512 35.2005 49.2359 33.0056 49.2359 30.298C49.2359 27.5904 47.5512 25.3955 45.473 25.3955C43.3948 25.3955 41.7101 27.5904 41.7101 30.298C41.7101 33.0056 43.3948 35.2005 45.473 35.2005Z"
                  fill="#FF8800"/>
            <path d="M47.2379 49.0312H26.7602C25.7668 49.0312 24.9639 48.2264 24.9639 47.2348C24.9639 46.2432 25.7668 45.4385 26.7602 45.4385H47.2379C48.2313 45.4385 49.0342 46.2432 49.0342 47.2348C49.0342 48.2264 48.2313 49.0312 47.2379 49.0312Z"
                  fill="#FF8800"/>
        </g>
    </g>
    <defs>
        <filter id="filter0_d_270_1033" x="3.86835" y="3.7002" width="74.4316" height="74.4834"
                filterUnits="userSpaceOnUse" color-interpolation-filters="sRGB">
            <feFlood flood-opacity="0" result="BackgroundImageFix"/>
            <feColorMatrix in="SourceAlpha" type="matrix" values="0 0 0 0 0 0 0 0 0 0 0 0 0 0 0 0 0 0 127 0"
                           result="hardAlpha"/>
            <feOffset dx="4" dy="4"/>
            <feGaussianBlur stdDeviation="2"/>
            <feComposite in2="hardAlpha" operator="out"/>
            <feColorMatrix type="matrix" values="0 0 0 0 0 0 0 0 0 0 0 0 0 0 0 0 0 0 0.1 0"/>
            <feBlend mode="normal" in2="BackgroundImageFix" result="effect1_dropShadow_270_1033"/>
            <feBlend mode="normal" in="SourceGraphic" in2="effect1_dropShadow_270_1033" result="shape"/>
        </filter>
        <clipPath id="clip0_270_1033">
            <rect width="74" height="74" fill="white"/>
        </clipPath>
    </defs>
</svg>